<svg xmlns="http://www.w3.org/2000/svg" width="200" height="55" viewBox="0 0 200 55">
  <defs>
    <style>
      .cls-1 {
        fill: #ff3203;
      }

      .cls-1, .cls-2, .cls-3, .cls-4, .cls-5 {
        fill-rule: evenodd;
      }

      .cls-2 {
        fill: #004eff;
      }

      .cls-3 {
        fill: #40c5b4;
      }

      .cls-4 {
        fill: #2f9bff;
      }

      .cls-5 {
        fill: #fefeff;
      }
    </style>
  </defs>
  <path id="Drop_top_1" data-name="Drop top 1" class="cls-1" d="M37.6,6.418l0.43,0.008a5.818,5.818,0,0,1,1.112.046l1.013,0.123a20.4,20.4,0,0,1,2.248.445c0.737,0.229,1.469.466,2.156,0.721L45.19,8.006c0.541,0.284,1.123.507,1.634,0.829,0.425,0.267.864,0.515,1.273,0.8a17.435,17.435,0,0,1,3,2.608,22.83,22.83,0,0,1,1.435,1.8c0.2,0.275.338,0.592,0.537,0.875,0.233,0.331.381,0.719,0.6,1.074,0.169,0.275.283,0.589,0.43,0.89a16.185,16.185,0,0,1,.721,1.734c0.109,0.311.211,0.627,0.322,0.951L55.247,19.9a0.573,0.573,0,0,1-.215.138c-0.224.142-.462,0.269-0.691,0.414-0.7.449-1.4,0.909-2.056,1.412a59.478,59.478,0,0,0-6.13,5.723c-1.741,1.777-3.336,3.711-4.994,5.57-0.483.541-.924,1.107-1.427,1.626a4.124,4.124,0,0,1-.483.522,0.38,0.38,0,0,1-.4-0.207c-0.233-.23-0.511-0.441-0.759-0.652-0.646-.55-1.314-1.085-1.979-1.611l-1.135-1.043c-0.566-.5-1.128-1-1.718-1.473-0.483-.39-0.913-0.852-1.4-1.243-0.988-.8-1.971-1.6-2.977-2.378l-0.644-.43c-0.6-.439-1.252-0.829-1.9-1.212-0.354-.209-0.73-0.352-1.1-0.537a26.266,26.266,0,0,0-2.8-1.135c-0.435-.156-0.887-0.253-1.312-0.4a3.448,3.448,0,0,1-.852-0.268L20.5,21.247a20.984,20.984,0,0,1,.614-2.347,10.039,10.039,0,0,1,.353-1.074l0.338-.844a24.2,24.2,0,0,1,1.366-2.624A19.33,19.33,0,0,1,29.133,8.8a20.707,20.707,0,0,1,2.041-1L31.9,7.545c0.674-.259,1.414-0.413,2.14-0.629l1.7-.338c0.426-.1.886-0.072,1.343-0.153Z"/>
  <path class="cls-2" d="M21.554,35.285l38.92,0.105L60.441,47.874l-38.92-.105Z"/>
  <path id="Drop_left_1" data-name="Drop left 1" class="cls-3" d="M58.416,19.37a14.034,14.034,0,0,1,6.705,1.555,13.743,13.743,0,0,1,6.75,7.116c0.241,0.561.409,1.146,0.613,1.749l0.292,1.218,0.209,1.233c0.067,0.338.011,0.679,0.067,1.039a4.343,4.343,0,0,1,0,1.121l-0.037.665c-0.08.444-.119,0.9-0.217,1.316a13.828,13.828,0,0,1-.351,1.435c-0.207.586-.408,1.159-0.635,1.719a8.119,8.119,0,0,1-.553,1.091l-0.321.583a13.613,13.613,0,0,1-2.153,2.661,15.318,15.318,0,0,1-2.078,1.675c-0.553.356-1.148,0.637-1.742,0.957-0.553.3-1.2,0.436-1.794,0.688l-0.389.1a9.267,9.267,0,0,1-.934.239,6.007,6.007,0,0,1-.86.179,3.5,3.5,0,0,1-.643.082,27.849,27.849,0,0,0-2.743-.957c-1.314-.512-2.623-1.02-3.9-1.57a48.423,48.423,0,0,1-8.866-5.277c-0.773-.548-1.475-1.2-2.22-1.779-0.486-.376-0.927-0.792-1.405-1.174l-0.329-.306a10.107,10.107,0,0,1-1.7-1.585,1.017,1.017,0,0,1,.336-0.411l0.762-.837,0.68-.822c0.736-.853,1.5-1.688,2.25-2.527l0.994-1.181c0.364-.421.774-0.8,1.151-1.211,0.639-.69,1.3-1.354,1.966-2.018A48.591,48.591,0,0,1,51,22.689a28.834,28.834,0,0,1,2.37-1.734c0.446-.292.923-0.552,1.353-0.852a3.315,3.315,0,0,1,.755-0.224c0.4-.127.824-0.207,1.233-0.329l0.777-.1Z"/>
  <path id="Drop_right_1" data-name="Drop right 1" class="cls-4" d="M21.191,22.867L22.538,23.3l0.7,0.207a17.3,17.3,0,0,1,2.035.784c0.75,0.352,1.474.672,2.168,1.066a22.466,22.466,0,0,1,3.211,2.264c0.637,0.528,1.3,1.008,1.924,1.554q1.555,1.372,3.115,2.745c0.911,0.8,1.862,1.571,2.8,2.353a2.239,2.239,0,0,1,.91.969l-0.607.7-0.621.651c-0.311.379-.648,0.735-0.969,1.1-0.245.28-.472,0.587-0.74,0.844-0.461.441-.88,0.926-1.347,1.361-0.862.805-1.715,1.61-2.641,2.353-0.377.3-.79,0.639-1.191,0.947l-0.363.259c-0.005,0-.047.028-0.022,0.037a3.158,3.158,0,0,0-.414.266,6.032,6.032,0,0,1-.651.451l0.022,0.007a5.375,5.375,0,0,0-.732.437l0.022,0.007-0.044.007,0.022,0.007a4.612,4.612,0,0,0-.414.222l0.022,0.015a0.857,0.857,0,0,0-.229.1l0.022,0.015a0.1,0.1,0,0,0-.081.022l0.022,0.007-0.052.007,0.022,0.007a0.535,0.535,0,0,0-.215.1l0.022,0.007-0.052.007,0.022,0.007a0.577,0.577,0,0,0-.244.111l0.022,0.007a0.464,0.464,0,0,0-.237.111l0.022,0.007a0.091,0.091,0,0,0-.074.022l0.022,0.007a0.691,0.691,0,0,0-.281.126l0.022,0.007-0.081.022,0.022,0.007a0.636,0.636,0,0,0-.252.111l0.022,0.007a0.164,0.164,0,0,0-.111.037l0.022,0.007a0.27,0.27,0,0,0-.141.052l0.022,0.007-0.081.022,0.022,0.007a0.229,0.229,0,0,0-.141.052l0.022,0.007a0.175,0.175,0,0,0-.111.037L26.7,45.974l-0.059.007,0.03,0.007a0.184,0.184,0,0,0-.126.037l0.022,0.007-0.052.007,0.022,0.007-0.052.007,0.022,0.007-0.052.007,0.022,0.007a0.321,0.321,0,0,0-.155.052l0.022,0.007-0.089.022,0.03,0.007a0.125,0.125,0,0,0-.1.022L26.215,46.2l-0.081.022,0.022,0.007-0.059.007,0.022,0.007-0.1.022,0.022,0.007a0.178,0.178,0,0,0-.118.037l0.022,0.007-0.126.037,0.022,0.007-0.059.007,0.022,0.007a0.178,0.178,0,0,0-.118.037l0.022,0.007-0.067.007,0.03,0.007-0.1.022,0.03,0.007a0.124,0.124,0,0,0-.1.022l0.022,0.007-0.1.022,0.022,0.007a0.117,0.117,0,0,0-.089.022l0.022,0.007-0.1.022,0.022,0.007-0.059.007,0.03,0.007a0.133,0.133,0,0,0-.1.022l0.022,0.007-0.067.007,0.022,0.007-0.052.007,0.022,0.007-0.067.007L25.1,46.67l-0.1.022L25.017,46.7l-0.059.007,0.022,0.007-0.059.007,0.022,0.007-0.059.007,0.022,0.007-0.074.007,0.037,0.007-0.067.007,0.022,0.007-0.074.007,0.037,0.007-0.067.007L24.743,46.8l-0.067.007,0.03,0.007-0.074.007,0.037,0.007L24.6,46.84l0.03,0.007-0.074.007,0.037,0.007-0.126.022,0.03,0.007-0.074.007,0.029,0.007-0.059.007,0.022,0.007-0.081.007,0.037,0.007-0.089.007,0.044,0.007-0.081.007,0.03,0.007-0.207.052,0.03,0.007a1.8,1.8,0,0,0-.4.133L23,47.336l-1.036.163-0.392.007-0.022.141a7.422,7.422,0,0,1-1.6-.2,15.939,15.939,0,0,1-2.841-.8,12.62,12.62,0,0,1-1.635-.784A12.382,12.382,0,0,1,10.13,39.3,11.451,11.451,0,0,1,9.6,33.485l0.111-.718a15.117,15.117,0,0,1,.821-2.678,11.832,11.832,0,0,1,3.529-4.661,17.628,17.628,0,0,1,1.754-1.147,12.954,12.954,0,0,1,2.138-.888,12.606,12.606,0,0,1,2.035-.473l0.94-.044Zm9.856,20.5h0Zm-0.022.015h0Zm-0.466.34h0Zm-0.977.651h0Zm-0.089.059h0Zm-0.5.311h0Zm-0.459.266h0Zm-0.444.237h0ZM26.622,46h0Zm-2.516,1L24.122,47Zm-0.133.044L24,47.047Zm-0.052.015,0.022,0.007Zm-0.037.015L23.9,47.077ZM23.8,47.1l0.015,0.007Z"/>
  <path id="Cloudex" class="cls-5" d="M87.168,15.974a2.68,2.68,0,0,0-2.816,2.784V35.591a2.68,2.68,0,0,0,2.816,2.784h12.16v-5.6H91.36V21.606h6.88l1.088-2.848V15.974H87.168Zm16.9,22.4h9.812v-3.92h-4.928V22.693h-4.884V38.375ZM124.09,26.636v7.818h-1.949V26.636h1.949Zm2.935,11.739A1.876,1.876,0,0,0,129,36.426V24.642a1.876,1.876,0,0,0-1.971-1.949h-7.818a1.876,1.876,0,0,0-1.972,1.949V36.426a1.876,1.876,0,0,0,1.972,1.949h7.818Zm12.857-15.681V34.454h-1.949V22.693h-4.906V36.426A1.876,1.876,0,0,0,135,38.375h9.789V22.693h-4.906ZM153.7,26.636h1.971v7.818H153.7V26.636Zm4.906,11.739a1.871,1.871,0,0,0,1.949-1.949V24.642a1.871,1.871,0,0,0-1.949-1.949h-9.79V38.375h9.79Zm16.464,0v-3.92h-5.6V32.3h4.817v-3.92h-4.817V26.636h4.817l0.784-1.994V22.693H164.588V38.375h10.485Zm9.385-9.991h-0.4l-1.03-5.69h-4.66V24.8l1.815,5.287-2.195,6.429v1.859h4.906l1.164-6.071h0.4l1.165,6.071h4.906V36.515l-2.2-6.429,1.815-5.287V22.693h-4.66Z"/>
</svg>
